<?xml version="1.0" encoding="UTF-8" standalone="no"?>
<svg
   xmlns:osb="http://www.openswatchbook.org/uri/2009/osb"
   xmlns:dc="http://purl.org/dc/elements/1.1/"
   xmlns:cc="http://creativecommons.org/ns#"
   xmlns:rdf="http://www.w3.org/1999/02/22-rdf-syntax-ns#"
   xmlns:svg="http://www.w3.org/2000/svg"
   xmlns="http://www.w3.org/2000/svg"
   xmlns:xlink="http://www.w3.org/1999/xlink"
   xmlns:sodipodi="http://sodipodi.sourceforge.net/DTD/sodipodi-0.dtd"
   xmlns:inkscape="http://www.inkscape.org/namespaces/inkscape"
   width="264mm"
   height="264mm"
   viewBox="0 0 264 264"
   version="1.1"
   id="svg77"
   inkscape:version="1.0.1 (3bc2e813f5, 2020-09-07)"
   sodipodi:docname="logo.svg">
  <defs
     id="defs71">
    <linearGradient
       inkscape:collect="always"
       id="linearGradient3994">
      <stop
         style="stop-color:#552fb8;stop-opacity:1"
         offset="0"
         id="stop4561" />
      <stop
         style="stop-color:#0008ff;stop-opacity:0;"
         offset="1"
         id="stop4563" />
    </linearGradient>
    <linearGradient
       inkscape:collect="always"
       id="linearGradient3625">
      <stop
         style="stop-color:#000000;stop-opacity:1;"
         offset="0"
         id="stop3621" />
      <stop
         style="stop-color:#000000;stop-opacity:0;"
         offset="1"
         id="stop3623" />
    </linearGradient>
    <linearGradient
       inkscape:collect="always"
       id="linearGradient3617">
      <stop
         style="stop-color:#ff6600;stop-opacity:1;"
         offset="0"
         id="stop3613" />
      <stop
         style="stop-color:#ff6600;stop-opacity:0;"
         offset="1"
         id="stop3615" />
    </linearGradient>
    <linearGradient
       inkscape:collect="always"
       id="linearGradient3607">
      <stop
         style="stop-color:#ff6600;stop-opacity:1;"
         offset="0"
         id="stop3603" />
      <stop
         style="stop-color:#ff6600;stop-opacity:0;"
         offset="1"
         id="stop3605" />
    </linearGradient>
    <linearGradient
       inkscape:collect="always"
       id="linearGradient3599">
      <stop
         style="stop-color:#000000;stop-opacity:1;"
         offset="0"
         id="stop3595" />
      <stop
         style="stop-color:#000000;stop-opacity:0;"
         offset="1"
         id="stop3597" />
    </linearGradient>
    <linearGradient
       id="linearGradient3398"
       osb:paint="solid">
      <stop
         style="stop-color:#000000;stop-opacity:1;"
         offset="0"
         id="stop3396" />
    </linearGradient>
    <linearGradient
       id="linearGradient1002"
       osb:paint="gradient">
      <stop
         style="stop-color:#008000;stop-opacity:1;"
         offset="0"
         id="stop998" />
      <stop
         style="stop-color:#008000;stop-opacity:0;"
         offset="1"
         id="stop1000" />
    </linearGradient>
    <linearGradient
       inkscape:collect="always"
       xlink:href="#linearGradient3599"
       id="linearGradient3601"
       x1="83.131091"
       y1="253.0669"
       x2="853.64911"
       y2="253.0669"
       gradientUnits="userSpaceOnUse"
       gradientTransform="matrix(0.25688971,0,0,0.22420016,-543.41558,-146.9555)" />
    <linearGradient
       inkscape:collect="always"
       xlink:href="#linearGradient3607"
       id="linearGradient3609"
       x1="83.131091"
       y1="253.0669"
       x2="853.64911"
       y2="253.0669"
       gradientUnits="userSpaceOnUse"
       gradientTransform="matrix(0.25688971,0,0,0.22420016,-543.41558,-146.9555)" />
    <linearGradient
       inkscape:collect="always"
       xlink:href="#linearGradient3617"
       id="linearGradient3619"
       x1="239.92177"
       y1="562.04067"
       x2="881.01278"
       y2="562.04067"
       gradientUnits="userSpaceOnUse"
       gradientTransform="matrix(0.25688971,0,0,0.22420016,-543.41558,-146.9555)" />
    <linearGradient
       inkscape:collect="always"
       xlink:href="#linearGradient3625"
       id="linearGradient3627"
       x1="239.92177"
       y1="562.04067"
       x2="881.01278"
       y2="562.04067"
       gradientUnits="userSpaceOnUse"
       gradientTransform="matrix(0.25688971,0,0,0.22420016,-543.41558,-146.9555)" />
    <linearGradient
       inkscape:collect="always"
       xlink:href="#linearGradient3994"
       id="linearGradient3998"
       x1="0"
       y1="132"
       x2="264"
       y2="132"
       gradientUnits="userSpaceOnUse"
       gradientTransform="translate(-317.66348,-112.58167)" />
  </defs>
  <sodipodi:namedview
     id="base"
     pagecolor="#ffffff"
     bordercolor="#666666"
     borderopacity="1.0"
     inkscape:pageopacity="0.0"
     inkscape:pageshadow="2"
     inkscape:zoom="0.24748737"
     inkscape:cx="132.94669"
     inkscape:cy="722.52748"
     inkscape:document-units="mm"
     inkscape:current-layer="layer2"
     inkscape:document-rotation="0"
     showgrid="false"
     inkscape:window-width="1920"
     inkscape:window-height="1017"
     inkscape:window-x="-8"
     inkscape:window-y="-8"
     inkscape:window-maximized="1" />
  <metadata
     id="metadata74">
    <rdf:RDF>
      <cc:Work
         rdf:about="">
        <dc:format>image/svg+xml</dc:format>
        <dc:type
           rdf:resource="http://purl.org/dc/dcmitype/StillImage" />
        <dc:title />
      </cc:Work>
    </rdf:RDF>
  </metadata>
  <g
     inkscape:groupmode="layer"
     id="layer2"
     inkscape:label="bg">
    <circle
       style="opacity:1;fill:url(#linearGradient3998);fill-opacity:1;fill-rule:nonzero;stroke:none;stroke-width:3.84947;stroke-linejoin:bevel;stroke-miterlimit:4;stroke-dasharray:none;stroke-dashoffset:0;stroke-opacity:1;paint-order:stroke markers fill"
       id="path3988"
       cx="-185.66348"
       cy="19.418331"
       r="132"
       transform="rotate(-129.02921)" />
    <circle
       style="opacity:0.61935484;fill:url(#linearGradient3998);fill-opacity:1;fill-rule:nonzero;stroke:none;stroke-width:3.84947;stroke-linejoin:bevel;stroke-miterlimit:4;stroke-dasharray:none;stroke-dashoffset:0;stroke-opacity:1;paint-order:stroke markers fill"
       id="circle4566"
       cx="-185.66348"
       cy="19.418331"
       r="132"
       transform="rotate(-129.02921)" />
    <circle
       style="opacity:1;fill:none;fill-opacity:0.70416665;fill-rule:nonzero;stroke:none;stroke-width:3.84947;stroke-linejoin:bevel;stroke-miterlimit:4;stroke-dasharray:none;stroke-dashoffset:0;stroke-opacity:1;paint-order:stroke markers fill"
       id="circle4568"
       cx="-154.05183"
       cy="105.43261"
       r="132"
       transform="rotate(-100.61238)" />
  </g>
  <g
     inkscape:label="图层 1"
     inkscape:groupmode="layer"
     id="layer1"
     transform="translate(549.57739,170.84524)">
    <path
       id="path149"
       style="fill:none;stroke:#000000;stroke-width:0.23999px;stroke-linecap:butt;stroke-linejoin:miter;stroke-opacity:1"
       d="m -363.947,-118.38355 c -42.0922,-0.099 -95.79576,25.236085 -95.79576,25.236085 -2.93589,12.811442 -129.91293,0 -11.74368,26.904024 62.14488,14.148748 105.39789,-10.317744 126.2633,-24.125165 4.52289,-2.419734 9.07967,-5.228044 13.65026,-8.468374 2.36416,0.09285 -2.24652,8.536711 -14.40439,33.234173 -42.57029,86.477212 -84.40697,106.975445 -101.2883,106.975445 -16.88132,0 -57.24954,-88.398735 -19.08307,-2.5621 38.16646,85.836642 173.95109,-96.085846 144.59227,-139.644738 -8.7159,-12.93154 -24.41836,-17.50757 -42.19063,-17.54935 z" />
    <path
       style="fill:#ff6600;stroke:#000000;stroke-width:0.23999px;stroke-linecap:butt;stroke-linejoin:miter;stroke-opacity:1"
       d="m -331.57288,-98.83698 c 7.43102,-4.71977 7.61451,-5.2002 7.61451,-5.2002"
       id="path3541" />
    <path
       style="opacity:0.912903;fill:url(#linearGradient3609);fill-opacity:1;stroke:url(#linearGradient3601);stroke-width:1.83252;stroke-miterlimit:4;stroke-dasharray:none;stroke-dashoffset:0;stroke-opacity:1"
       d="m -446.95683,-62.773627 c -11.12678,-1.02205 -19.61476,-2.589828 -37.99647,-7.018168 -19.04699,-4.588607 -31.86161,-8.583998 -35.27981,-10.999676 -1.85097,-1.308093 -0.76448,-2.166415 3.79273,-2.996264 5.02195,-0.914471 6.29545,-1.035444 22.14516,-2.103602 20.66676,-1.392792 27.73401,-2.406413 32.30182,-4.632898 1.06733,-0.520244 2.06526,-1.288746 2.21765,-1.707787 0.15828,-0.435214 3.44295,-2.078073 7.66084,-3.831593 52.51078,-21.830755 94.44998,-27.613795 116.6779,-16.088835 3.8894,2.01662 10.33433,6.9777 10.33433,7.95499 0,0.68551 -9.99124,7.454808 -18.55409,12.570836 -3.21129,1.918637 -8.34935,4.991561 -11.41791,6.828716 -18.79823,11.25455 -38.97455,18.365583 -60.07373,21.172654 -7.6885,1.022889 -24.92104,1.484268 -31.80842,0.851627 z"
       id="path3593" />
    <path
       style="opacity:0.912903;fill:url(#linearGradient3619);fill-opacity:1;stroke:url(#linearGradient3627);stroke-width:1.83252;stroke-miterlimit:4;stroke-dasharray:none;stroke-dashoffset:0;stroke-opacity:1"
       d="m -441.68883,60.685953 c -9.27624,-1.837451 -16.98598,-8.087811 -22.21243,-18.007841 -2.82322,-5.358592 -16.90008,-37.4568101 -16.90008,-38.5357502 0,-0.2926695 2.2898,2.9272249 5.08845,7.1553212 12.32718,18.623436 19.50302,26.985353 25.27142,29.448425 2.66668,1.138674 2.95616,1.16932 6.50476,0.6888 16.60345,-2.2483 37.77111,-17.487867 57.29224,-41.24731485 15.86577,-19.31046415 27.7294,-38.68947515 44.76296,-73.11932715 8.02434,-16.219572 11.06988,-22.943715 11.06988,-24.440832 0,-0.854021 0.80947,-1.73843 3.14091,-3.431784 1.72752,-1.25471 3.30395,-2.28108 3.50323,-2.28081 0.57938,6.6e-4 3.17726,4.286997 4.25445,7.019456 8.3902,21.283356 -13.06058,71.277214 -48.00423,111.880168 -7.69142,8.937081 -12.31235,13.627273 -20.91733,21.23087 -20.29148,17.930082 -39.13457,26.358215 -52.85423,23.640619 z"
       id="path3611" />
  </g>
</svg>
